<svg width="196" height="35" viewBox="0 0 196 35" fill="none" xmlns="http://www.w3.org/2000/svg">
<path fill-rule="evenodd" clip-rule="evenodd" d="M35.9206 19C35.8466 19.7137 35.7217 20.4119 35.5497 21.0905H18.066C17.2376 21.0905 16.566 21.7802 16.566 22.6311C16.566 23.4819 17.2376 24.1716 18.066 24.1716H34.3841C34.0045 24.9087 33.5644 25.6079 33.0705 26.262H25.1373C24.3089 26.262 23.6373 26.9518 23.6373 27.8026C23.6373 28.6535 24.3089 29.3431 25.1373 29.3431H29.8836C27.6382 30.9173 24.9238 31.8379 22 31.8379C14.7747 31.8379 8.82787 26.2165 8.07942 19H35.9206ZM8.07942 15.9189C8.82787 8.70236 14.7747 3.08108 22 3.08108C29.2252 3.08108 35.1721 8.70236 35.9206 15.9189H8.07942ZM38.9347 15.9189C38.1753 6.99787 30.8834 0 22 0C13.1166 0 5.82466 6.99787 5.06527 15.9189H1.5C0.67157 15.9189 0 16.6086 0 17.4595C0 18.3103 0.67157 19 1.5 19H5.06527C5.82466 27.9211 13.1166 34.9189 22 34.9189C30.8834 34.9189 38.1753 27.9211 38.9347 19H42.5C43.3284 19 44 18.3103 44 17.4595C44 16.6086 43.3284 15.9189 42.5 15.9189H38.9347Z" fill="#F15075"/>
<path d="M55.24 28.5595V19.7995H58.48C63.28 19.7995 66.25 17.4295 66.25 13.0795C66.25 8.72945 63.22 6.35945 58.45 6.35945H52V28.5595H55.24ZM55.24 16.8295V9.32945H58.42C61.24 9.32945 63.01 10.6495 63.01 13.0795C63.01 15.4795 61.3 16.8295 58.45 16.8295H55.24ZM83.4278 28.5595L77.2178 20.2795C80.3378 20.1895 83.5778 17.9695 83.5778 13.7395C83.5778 9.17945 81.2078 6.35945 75.8678 6.35945H68.7578V28.5595H71.9978V18.2695H72.0578L79.3778 28.5595H83.4278ZM71.9978 17.8195V9.32945H75.4178C78.2978 9.32945 80.3378 10.9195 80.3378 13.4695C80.3378 16.3495 78.1478 17.8195 74.3678 17.8195H71.9978ZM98.54 28.5595V25.5895H89.8103V18.8395H98.54V15.8695H89.8103V9.32945H98.54V6.35945H86.5703V28.5595H98.54ZM113.946 12.1195C113.886 8.24945 111.246 5.93945 107.586 5.93945C104.166 5.93945 101.376 8.60945 101.376 11.9995C101.376 15.1495 102.576 16.9495 108.066 18.8095C110.436 19.6195 111.156 20.6395 111.156 22.2595C111.156 24.4495 109.746 26.0095 107.586 26.0095C105.426 26.0095 104.016 24.3895 103.986 21.9895H100.746C100.806 26.1595 103.626 28.9795 107.586 28.9795C111.516 28.9795 114.396 26.2795 114.396 22.2595C114.396 18.4195 112.626 16.6195 107.826 15.0895C105.666 14.3995 104.616 13.4995 104.616 11.9395C104.616 10.3195 106.026 8.90945 107.586 8.90945C109.416 8.90945 110.706 10.1095 110.706 12.1195H113.946ZM122.887 28.5595V9.32945H127.147V6.35945H115.387V9.32945H119.647V28.5595H122.887ZM141.314 28.5595V25.5895H132.584V18.8395H141.314V15.8695H132.584V9.32945H141.314V6.35945H129.344V28.5595H141.314ZM148.47 28.5595V6.35945H145.23V28.5595H148.47ZM170.965 20.4895C169.555 24.0595 166.735 26.0095 163.225 26.0095C158.755 26.0095 155.065 22.0495 155.065 17.3695C155.065 12.9895 158.785 8.90945 163.105 8.90945C165.565 8.90945 167.455 9.77945 169.345 11.9395H173.125C170.875 7.94945 167.215 5.93945 162.955 5.93945C157.345 5.93945 151.825 10.5595 151.825 17.7595C151.825 23.7595 156.955 28.9795 162.955 28.9795C168.865 28.9795 174.445 24.8995 174.655 17.5195H160.615V20.4895H170.965ZM195.506 28.5595V6.35945H192.266V23.2495H192.206L181.406 6.35945H177.866V28.5595H181.106V11.3995H181.166L192.146 28.5595H195.506Z" fill="#F15075"/>
</svg>
