<svg width="1280" height="146" viewBox="0 0 1280 146" fill="none" xmlns="http://www.w3.org/2000/svg">
<path d="M31.5 95L0 116V146.5H1280V120.5L1232 95H1120.5L1021 87L910.5 50L811.5 95H681.5L583.5 74L520.5 95L394.5 74L252.5 2L215 34.5H157.5L88.5 74L31.5 95Z" fill="#FDE2E3"/>
<path d="M0 116L31.5 95L88.5 74L157.5 34.5H215L252.5 2L394.5 74L520.5 95L583.5 74L681.5 95H811.5L910.5 50L1021 87L1120.5 95H1232L1280 120.5" stroke="#FFA7AF" stroke-width="2"/>
<path d="M31.5 116L5 127L0 146.5H1280V128.5L1245 114.5L1120.5 104L1018 112.5L910.5 62.5L805 104L671.5 120.5L593 90.5L525 112.5L393.5 90.5L260.5 24L223.5 45L149 59L88.5 74L31.5 116Z" fill="#FFA7AF"/>
<path d="M5 127L31.5 116L88.5 74L149 59L223.5 45L260.5 24L393.5 90.5L525 112.5L593 90.5L671.5 120.5L805 104L910.5 62.5L1018 112.5L1120.5 104L1245 114.5L1280 128.5" stroke="#041A31" stroke-width="2"/>
<path d="M31.5 116L0 127.5V146.5H1280V132L1245 114.5L1187 120L1127 113L1013 125.5L907.5 81.5L808.5 86L741 120.5H671.5L583 113L524.5 97L362.5 106L260.5 24L224.5 61L159 75.5L106.5 90.5L31.5 116Z" fill="#041A31"/>
</svg>
