<svg width="1280" height="148" viewBox="0 0 1280 148" fill="none" xmlns="http://www.w3.org/2000/svg">
<path d="M31.5 95L0 116V146.5H1280V120.5L1232 95H1120.5L1021 87L910.5 50L811.5 95H681.5L583.5 74L520.5 95L394.5 74L252.5 2L215 34.5H157.5L88.5 74L31.5 95Z" fill="#FDE2E3"/>
<path d="M0 116L31.5 95L88.5 74L157.5 34.5H215L252.5 2L394.5 74L520.5 95L583.5 74L681.5 95H811.5L910.5 50L1021 87L1120.5 95H1232L1280 120.5" stroke="#FFA7AF" stroke-width="2"/>
<path d="M31.5 117L5 128L0 147.5H1280V129.5L1245 115.5L1120.5 105L1018 113.5L910.5 63.5L805 105L671.5 121.5L593 91.5L525 113.5L393.5 91.5L260.5 25L223.5 46L149 60L88.5 75L31.5 117Z" fill="#FFA7AF"/>
<path d="M5 127L31.5 116L88.5 74L149 59L223.5 45L260.5 24L393.5 90.5L525 112.5L593 90.5L671.5 120.5L805 104L910.5 62.5L1018 112.5L1120.5 104L1245 114.5L1280 128.5" stroke="#041A31" stroke-width="2"/>
<path d="M31.5 117L0 128.5V147.5H1280V133L1245 115.5L1187 121L1127 114L1013 126.5L907.5 82.5L808.5 87L741 121.5H671.5L583 114L524.5 98L362.5 107L260.5 25L224.5 62L159 76.5L106.5 91.5L31.5 117Z" fill="#041A31"/>
</svg>
