<svg width="1280" height="599" viewBox="0 0 1280 599" fill="none" xmlns="http://www.w3.org/2000/svg">
<path fill-rule="evenodd" clip-rule="evenodd" d="M1280 375.367L1207.35 279.978L1182.1 300.189L1116.14 254.317L956.114 279.877L846.623 248.829L746.016 315.183L674.384 370.359L602.441 324.417L492.89 360.614L344.859 416.571L228.677 380.515L67.826 443.473L0 351.329V354.704L67.215 445.907L228.757 382.648L344.939 418.704L493.561 362.516L602.131 326.56L674.464 372.762L747.167 316.785L846.983 250.962L955.994 281.941L1115.66 256.451L1182.18 302.703L1207 282.852L1280 378.642V375.367Z" fill="#FF8B96"/>
<path fill-rule="evenodd" clip-rule="evenodd" d="M1280 388.897L1198.32 418.353L1034.01 0.520142L942.192 193.692L826.141 150.565L623.374 388.546L491.879 353.492L303.144 505.149L150.575 449.622L0 514.724V516.897L150.635 451.765L303.524 507.412L492.339 355.625L624.085 390.78L826.772 152.948L943.214 196.206L1033.83 5.55801L1197.2 420.907L1280 391.02V388.897Z" fill="#FFCDD1"/>
<path fill-rule="evenodd" clip-rule="evenodd" d="M1280 326.14L1247.11 347.483L1189.46 325.579L1101.85 301.691L1033.25 0L862.548 359.151L770.053 214.165L622.102 388.888L437.283 532.883L379.323 443.453L170.246 533.183L0 415.099V417.532L170.016 535.527L378.562 446.017L436.783 535.857L623.504 390.34L769.803 217.54L862.808 363.278L1032.57 6.10955L1100.17 303.314L1188.84 327.502L1247.35 349.696L1280 328.523V326.14Z" fill="#2E6C94"/>
<path fill-rule="evenodd" clip-rule="evenodd" d="M1280 416.32L1182.94 381.837L1162.99 299.077L1129.21 244.752L962.254 425.234L859.803 328.283L667.523 438.445L622.453 388.377L395.117 529.587L370.459 504.568L253.025 563.21L130.965 482.814L0 455.422V457.465L130.183 484.697L252.885 565.524L370.058 507.002L394.857 532.101L622.192 390.891L667.263 440.959L859.593 330.797L962.344 428.089L1128.87 248.048L1161.15 299.869L1181.27 383.369L1280 418.454V416.32Z" fill="#3EA0DF"/>
<path fill-rule="evenodd" clip-rule="evenodd" d="M1280 492.78V488.653L1194.22 440.598L1095.82 489.084L1005.08 395.408L769.813 509.686L725.093 489.365L675.145 464.486L662.515 478.658L588.139 464.636L529.698 488.874L431.985 555.187L345.921 509.676L320.881 521.695L294.851 509.676L241.628 541.796L161.733 528.876L101.449 509.756L62.1271 528.776L0 497.698V499.931L62.1471 530.929L101.639 511.91L161.302 530.839L241.938 543.9L294.881 511.95L320.921 523.969L345.951 511.95L432.185 557.551L530.699 490.647L588.359 466.789L663.256 480.811L675.626 466.939L724.222 491.147L769.843 511.86L1004.66 397.842L1095.36 491.478L1194.13 442.822L1279.81 490.827V492.81L1280 492.78Z" fill="#FF8FA8"/>
<path fill-rule="evenodd" clip-rule="evenodd" d="M1280 471.577L1279.81 471.246L1200.7 518.13L1161.23 492.65L1096.54 518.24L1022.17 492.91L981.534 442.271L920.198 492.57L826.582 442.491L686.372 557.661L631.286 525.731L604.174 535.747L578.003 525.681L545.843 549.809L494.352 543.9L441.089 518.771L349.847 550.41L229.669 568.358L165.959 518.74L86.7355 542.297L0 518.5V520.573L86.7956 544.381L165.589 520.874L229.158 570.391L350.337 552.283L440.979 520.874L493.802 545.803L546.414 551.912L578.304 527.985L604.164 537.89L631.106 527.885L686.623 560.035L826.832 444.865L920.448 494.943L981.253 445.085L1020.96 494.603L1096.54 520.373L1160.98 494.883L1200.7 520.483L1280 473.45V471.577Z" fill="#041A31"/>
<path fill-rule="evenodd" clip-rule="evenodd" d="M1280 550.14L1158.26 430.423L1080.1 475.092L1065.26 550.2L927.94 464.656L832.19 485.819L744.453 550.61L681.234 508.465L625.958 569.76L559.214 554.817L492.109 569.84L432.265 550.911L313.8 528.786L161.783 569.85L61.8767 507.854L0 489.555V491.628L61.0654 509.716L161.462 571.944L313.88 530.88L431.785 552.864L492.069 571.944L559.174 556.92L626.659 571.944L681.565 511.069L744.513 553.034L833.042 487.652L927.579 466.789L1066.67 553.465L1081.89 476.354L1157.94 432.886L1280 552.944V550.14Z" fill="#F15075"/>
</svg>
