<svg id="Layer_1" data-name="Layer 1" xmlns="http://www.w3.org/2000/svg" viewBox="0 0 100 100">
  <defs>
    <style>
      .cls-1 {
        fill: #ff687d;
        fill-rule: evenodd;
      }
    </style>
  </defs>
  <path class="cls-1" d="M80.72,53.4A31.49,31.49,0,0,1,79.9,58H41.32a3.4,3.4,0,0,0,0,6.8h36a32.32,32.32,0,0,1-2.9,4.62H56.92a3.4,3.4,0,0,0,0,6.8H67.4A30.24,30.24,0,0,1,50,81.73c-16,0-29.07-12.4-30.72-28.33ZM19.28,46.6C20.93,30.67,34.05,18.27,50,18.27S79.07,30.67,80.72,46.6Zm68.1,0C85.7,26.91,69.61,11.47,50,11.47S14.3,26.91,12.62,46.6H4.76a3.4,3.4,0,0,0,0,6.8h7.86C14.3,73.09,30.39,88.53,50,88.53S85.7,73.09,87.38,53.4h7.86a3.4,3.4,0,0,0,0-6.8Z"/>
</svg>
