<?xml version="1.0" standalone="no"?>
<svg viewBox="0 0 200 200" xmlns="http://www.w3.org/2000/svg">
  <path fill="#3EA0DF" d="M45.4,-67.4C60.5,-60.9,75.7,-51.2,81.8,-37.5C87.9,-23.7,84.9,-6,79.4,9.3C73.9,24.6,66,37.4,56.5,49.7C47,61.9,36,73.6,23.7,74.4C11.3,75.3,-2.5,65.3,-13.6,57.1C-24.7,48.9,-33.2,42.5,-40.7,34.7C-48.2,27,-54.7,17.9,-60.9,5.9C-67.1,-6.1,-72.9,-21.1,-68.1,-30.9C-63.4,-40.8,-47.9,-45.7,-34.8,-53.1C-21.7,-60.5,-10.8,-70.4,2.1,-73.8C15.1,-77.1,30.2,-73.8,45.4,-67.4Z" transform="translate(100 100)" />
</svg>
